<svg xmlns="http://www.w3.org/2000/svg" width="14.003" height="30" viewBox="0 0 14.003 30">
  <g id="_020201ff" data-name="#020201ff" transform="translate(-30 -685.579)">
    <path id="Path_26" data-name="Path 26" d="M34.615,687.125a6.575,6.575,0,0,1,4.4-1.537c1.66-.015,3.32-.006,4.98-.005q.009,2.626,0,5.254c-1.073,0-2.146,0-3.219,0a1.483,1.483,0,0,0-1.5,1.148c-.016,1.172-.006,2.344-.005,3.516,1.574.007,3.147,0,4.721,0-.116,1.7-.326,3.383-.573,5.064-1.39.013-2.78,0-4.17.007-.012,5,.006,10-.01,15-2.064.009-4.13,0-6.194.006-.04-5,0-10-.022-15-1.007-.011-2.015.007-3.022-.009,0-1.681,0-3.362,0-5.042,1.006-.012,2.014,0,3.02-.007.031-1.634-.031-3.27.032-4.9A5.284,5.284,0,0,1,34.615,687.125Z" fill="#3d58a6"/>
  </g>
</svg>
