<svg xmlns="http://www.w3.org/2000/svg" width="100" height="130.502" viewBox="0 0 100 130.502">
  <g id="Group_10" data-name="Group 10" transform="translate(-1916.781 -829.769)">
    <path id="Path_29" data-name="Path 29" d="M1953.9,958.815a3.815,3.815,0,0,0,3,1.456h47.766a3.823,3.823,0,0,0,3.545-2.4c.073-.182,1-2.632,1.347-3.613.994-2.793,1.989-5.833,2.917-9.022a121.636,121.636,0,0,0,3.405-14.81c1.616-10.2,1.166-18.363-2.216-23.958-3.516-5.819-9.795-10.008-17.988-12.974a77.08,77.08,0,0,0-13.292-3.42c-1.577-.268-2.557-.384-2.557-.384V854.7a11.491,11.491,0,0,0-11.464-11.5h-1.911a11.5,11.5,0,0,0-11.464,11.515l.007,60.637-12.726-11.185c-8.173-7.183-19.544-5.275-24.924,4.183a3.9,3.9,0,0,0,.256,4.4Zm-27.327-49.671c3.12-2.4,7.231-2.211,10.662.8l19.057,16.749a3.82,3.82,0,0,0,6.338-2.888v-69.09a3.836,3.836,0,0,1,3.821-3.838h1.911a3.83,3.83,0,0,1,3.821,3.819v38.4a3.831,3.831,0,0,0,3.544,3.828c.237.018.724.063,1.423.143,1.191.136,2.523.323,3.96.566a69.714,69.714,0,0,1,11.972,3.073c6.7,2.427,11.607,5.7,14.046,9.735,2.192,3.628,2.556,10.217,1.2,18.77a114.186,114.186,0,0,1-3.194,13.86c-.883,3.036-1.83,5.934-2.777,8.592a7.837,7.837,0,0,0-.311.927H1958.8l-33.422-42.327A9.311,9.311,0,0,1,1926.569,909.144Z" fill="#3d58a6"/>
    <path id="Path_30" data-name="Path 30" d="M1993.34,850.429a26.011,26.011,0,1,0-37.907,28.018,3.842,3.842,0,1,0,3.685-6.742,18.309,18.309,0,1,1,17.657-.1,3.842,3.842,0,1,0,3.762,6.7,25.894,25.894,0,0,0,13.224-20.2h11.317v3.847c0,1.036.7,1.409,1.574.79L2017,855.387a1.281,1.281,0,0,0,0-2.239l-10.344-7.357c-.886-.63-1.574-.264-1.574.791v3.847Z" transform="translate(-0.873)" fill="#3d58a6"/>
  </g>
</svg>
