<svg xmlns="http://www.w3.org/2000/svg" width="100.181" height="30.574" viewBox="0 0 100.181 30.574">
  <g id="Group_7" data-name="Group 7" transform="translate(-30 -30)">
    <g id="Group_6" data-name="Group 6">
      <path id="Path_19" data-name="Path 19" d="M37.44,54.765a1.111,1.111,0,0,1-.51-.2l-5.809-5.6a3.341,3.341,0,0,1-.611-.612,2.167,2.167,0,0,1-.357-.509A1.412,1.412,0,0,1,30,47.172v-.815a1.408,1.408,0,0,1,.153-.662c.153-.2.255-.408.357-.51l.611-.611,5.758-5.758a.862.862,0,0,1,.51-.153.655.655,0,0,1,.509.2.906.906,0,0,1,.2.51v1.172c0,.1-.051.153-.051.2a.387.387,0,0,1-.1.2.631.631,0,0,1-.1.153c0,.051-.051.1-.152.2l-.153.153a.611.611,0,0,0-.2.2c-.1.1-.2.153-.2.2L32.65,46.51c-.1.1-.2.2-.2.306a.369.369,0,0,0,.2.306l4.484,4.433a.7.7,0,0,0,.2.153c.1.1.153.152.2.152l.153.153.152.153c.051.051.051.1.1.153s.051.153.1.2c0,.051.051.153.051.2V54a.653.653,0,0,1-.2.509A.538.538,0,0,1,37.44,54.765Z" fill="#ee4036"/>
      <path id="Path_20" data-name="Path 20" d="M43.045,60.574c-.1,0-.2-.153-.2-.408v-.152l4.688-29.4c.1-.407.2-.611.357-.611h2.752c.152,0,.2.153.2.408v.153l-4.688,29.4c-.1.407-.2.611-.356.611Z" fill="#ee4036"/>
      <path id="Path_21" data-name="Path 21" d="M55.275,57.16a.5.5,0,0,1-.408-.153c-.1-.1-.1-.306-.1-.611V34.229a1.29,1.29,0,0,1,.1-.611.5.5,0,0,1,.408-.153h2.9a.5.5,0,0,1,.408.153c.1.1.1.306.1.611v8.765a.382.382,0,0,0,.051.255c.051.1.1.1.153.1h5.962c.051,0,.1-.051.152-.1.051-.1.1-.153.1-.255V34.229a.885.885,0,0,1,.153-.611.5.5,0,0,1,.408-.153h2.955a.4.4,0,0,1,.357.153c.1.1.1.306.1.611V56.4a1.29,1.29,0,0,1-.1.611.463.463,0,0,1-.357.153H65.67a.382.382,0,0,1-.255-.051l-.2-.2a1.278,1.278,0,0,1-.1-.509V46.306c0-.255-.051-.356-.2-.356H58.893c-.153,0-.2.1-.2.356V56.4a.885.885,0,0,1-.153.611.5.5,0,0,1-.408.153Z" fill="#ee4036"/>
      <path id="Path_22" data-name="Path 22" d="M76.473,57.16a.4.4,0,0,1-.357-.153.885.885,0,0,1-.153-.611V36.522c0-.254-.051-.407-.2-.407h-3.77q-.076,0-.153-.153a1.132,1.132,0,0,1-.051-.459V34.178a1.037,1.037,0,0,1,.1-.56.5.5,0,0,1,.407-.153H83.556a.4.4,0,0,1,.356.153c.1.1.1.306.1.56V35.5a.946.946,0,0,1-.1.51.655.655,0,0,1-.407.1H80.091c-.153,0-.2.153-.2.407V56.4a1.05,1.05,0,0,1-.153.662.5.5,0,0,1-.408.153H76.473Z" fill="#ee4036"/>
      <path id="Path_23" data-name="Path 23" d="M86.919,57.16c-.306,0-.459-.255-.459-.815v-.1l.917-21.912c0-.611.2-.917.51-.917h3.159a.862.862,0,0,1,.51.153.871.871,0,0,1,.306.611l3.363,15.593a.178.178,0,0,0,.051.1h.1c.051,0,.051-.051.051-.1L98.792,34.28c.1-.509.357-.815.764-.815h3.21c.306,0,.459.357.459.917l.917,21.912v.1c0,.509-.153.815-.509.815h-2.191c-.306,0-.51-.306-.51-.866l-.611-17.02c0-.051,0-.1-.051-.1s-.051,0-.1.051L96.55,56.4c-.1.509-.357.815-.663.815H94.613c-.305,0-.56-.255-.662-.815l-3.516-17.02c0-.051-.051-.1-.1-.051v.1l-.662,16.867c0,.611-.153.866-.459.866Z" fill="#ee4036"/>
      <path id="Path_24" data-name="Path 24" d="M108.932,57.16a.394.394,0,0,1-.356-.153c-.1-.1-.1-.306-.1-.611V34.229a1.29,1.29,0,0,1,.1-.611.459.459,0,0,1,.356-.153h2.956a.4.4,0,0,1,.356.153c.1.1.1.306.1.611V54.205c0,.254.1.356.255.356h5.2a.591.591,0,0,1,.356.1c.1.1.1.255.1.51V56.5a1.363,1.363,0,0,1-.1.56.427.427,0,0,1-.356.1Z" fill="#ee4036"/>
      <path id="Path_25" data-name="Path 25" d="M122.843,54.765a.5.5,0,0,1-.458-.2.906.906,0,0,1-.2-.509V52.931a.307.307,0,0,1,.051-.2c0-.051.051-.1.051-.153a.187.187,0,0,0,.051-.153c0-.051.051-.1.1-.153s.1-.1.1-.153.051-.051.1-.153l.153-.152c.05,0,.1-.051.152-.153q.153-.077.153-.153l4.484-4.586a.441.441,0,0,0,.153-.306.37.37,0,0,0-.2-.306L123.1,41.873a1.4,1.4,0,0,0-.255-.2c-.1-.1-.2-.153-.2-.2l-.153-.153c-.1-.1-.153-.152-.153-.2s-.051-.1-.1-.2-.051-.153-.1-.255V39.274a.7.7,0,0,1,.663-.713.824.824,0,0,1,.509.2l5.809,5.656.612.611a1.781,1.781,0,0,1,.3.459,1.569,1.569,0,0,1,.153.662v1.07c0,.051-.051.153-.051.2a.385.385,0,0,0-.051.2c0,.051-.051.1-.1.2a.65.65,0,0,1-.1.153.881.881,0,0,1-.153.2l-.153.152-.2.2c-.1.1-.2.153-.2.2L123.4,54.51A.87.87,0,0,1,122.843,54.765Z" fill="#ee4036"/>
    </g>
  </g>
</svg>
