<svg xmlns="http://www.w3.org/2000/svg" width="84.81" height="127.513" viewBox="0 0 84.81 127.513">
  <path id="Path_28" data-name="Path 28" d="M2624.427,920.873a1.979,1.979,0,0,0-2.786.227l-13.693,16.071-8.75-6.933a1.971,1.971,0,1,0-2.46,3.081l10.247,8.121a1.983,1.983,0,0,0,2.738-.266l14.932-17.525A1.963,1.963,0,0,0,2624.427,920.873Zm-13.868,33.186a1.973,1.973,0,0,0-1.977,1.969,5.925,5.925,0,0,1-5.931,5.9H2550.2a5.925,5.925,0,0,1-5.93-5.9V848.2a5.926,5.926,0,0,1,5.93-5.906h52.452a5.926,5.926,0,0,1,5.931,5.906v60.253a1.977,1.977,0,0,0,3.954,0V874.844a3.29,3.29,0,0,0,2.64-3.216v-8.612a3.288,3.288,0,0,0-2.64-3.215V848.2a9.875,9.875,0,0,0-9.885-9.843H2550.2a9.874,9.874,0,0,0-9.884,9.843V956.028a9.874,9.874,0,0,0,9.884,9.842h52.452a9.885,9.885,0,0,0,9.8-8.571,1.938,1.938,0,0,0,.083-.563v-.708A1.975,1.975,0,0,0,2610.559,954.059ZM2586.31,848.387a1.969,1.969,0,1,0,0-3.937h-19.768a1.969,1.969,0,1,0,0,3.937Zm-15.38,106.739a5.5,5.5,0,1,0,5.5-5.471A5.491,5.491,0,0,0,2570.93,955.126Zm7.038,0a1.542,1.542,0,1,1-1.542-1.534A1.54,1.54,0,0,1,2577.968,955.126Zm22.081-44.826a2.176,2.176,0,0,0,2.179-2.172V864.063c0-3.665-3.536-6.881-7.567-6.881h-35.744a7.561,7.561,0,0,0-7.567,7.537V938.2a7.56,7.56,0,0,0,7.567,7.536H2590.1a2.172,2.172,0,1,0,0-4.344h-31.186a3.2,3.2,0,0,1-3.207-3.194V864.719a3.2,3.2,0,0,1,3.207-3.194h35.744a3.17,3.17,0,0,1,3.208,2.538v44.066A2.174,2.174,0,0,0,2600.049,910.3Z" transform="translate(-2540.315 -838.357)" fill="#3d58a6"/>
</svg>
