<svg xmlns="http://www.w3.org/2000/svg" width="24.813" height="30" viewBox="0 0 24.813 30">
  <path id="Youtube" d="M125.605,709.94V706.4q0-1.128-.655-1.128a1.058,1.058,0,0,0-.744.361v5.053a1.06,1.06,0,0,0,.744.36q.654,0,.655-1.1Zm4.15-2.752h1.489v-.767q0-1.151-.745-1.15t-.744,1.15Zm-12.88-6v1.579h-1.8v9.542H113.4v-9.542h-1.759v-1.579Zm4.534,2.842v8.279H119.9v-.9a2.4,2.4,0,0,1-1.715,1.015.886.886,0,0,1-.947-.631,3.853,3.853,0,0,1-.135-1.218V704.03h1.488v6.091a3.375,3.375,0,0,0,.023.586c.015.226.128.338.338.338q.452,0,.948-.7V704.03Zm5.684,2.5v3.293a5.856,5.856,0,0,1-.158,1.647,1.155,1.155,0,0,1-1.195.947,2.044,2.044,0,0,1-1.534-.924v.812h-1.511V701.188h1.511v3.632a2,2,0,0,1,1.534-.9,1.155,1.155,0,0,1,1.195.947A5.968,5.968,0,0,1,127.093,706.534Zm5.662,2.91v.2a7.558,7.558,0,0,1-.045.97,2.113,2.113,0,0,1-.339.9,2.033,2.033,0,0,1-1.8.9,2.165,2.165,0,0,1-1.827-.857,3.169,3.169,0,0,1-.474-1.94v-2.909a3.3,3.3,0,0,1,.451-1.94,2.143,2.143,0,0,1,1.805-.857,2.023,2.023,0,0,1,1.759.857,3.23,3.23,0,0,1,.474,1.94v1.714h-3V709.9q0,1.15.767,1.15a.652.652,0,0,0,.676-.586c0-.015,0-.068.012-.158s.011-.214.011-.372v-.485Zm-10.173-18.587v3.519q0,1.151-.722,1.151t-.722-1.151v-3.519q0-1.172.722-1.172T122.582,690.857ZM134.6,706.94a28.82,28.82,0,0,0-.429-5.864,3.082,3.082,0,0,0-.97-1.658,3.05,3.05,0,0,0-1.714-.779,93,93,0,0,0-9.294-.338,92.663,92.663,0,0,0-9.27.338,3.016,3.016,0,0,0-1.726.779,3.114,3.114,0,0,0-.958,1.658,28.189,28.189,0,0,0-.452,5.864,27.609,27.609,0,0,0,.452,5.865,3.171,3.171,0,0,0,.958,1.646,2.955,2.955,0,0,0,1.7.79q3.09.339,9.293.338t9.294-.338a2.955,2.955,0,0,0,1.7-.79,3.171,3.171,0,0,0,.958-1.646A27.61,27.61,0,0,0,134.6,706.94Zm-17.031-14.684,2.031-6.677h-1.692l-1.151,4.4-1.195-4.4h-1.759l.541,1.557.519,1.556a30.907,30.907,0,0,1,1.037,3.564v4.534h1.669v-4.534Zm6.519,1.827v-2.932a3.351,3.351,0,0,0-.473-1.963,2.1,2.1,0,0,0-1.76-.857,2.025,2.025,0,0,0-1.759.857,3.343,3.343,0,0,0-.474,1.963v2.932a3.339,3.339,0,0,0,.474,1.962,2.024,2.024,0,0,0,1.759.858,2.1,2.1,0,0,0,1.76-.858A3.223,3.223,0,0,0,124.093,694.083Zm4.083,2.707h1.511v-8.346h-1.511v6.383q-.5.7-.947.7c-.226,0-.346-.121-.361-.361a3.393,3.393,0,0,1-.023-.587v-6.135h-1.511v6.609a4.225,4.225,0,0,0,.135,1.241.95.95,0,0,0,.97.609,2.524,2.524,0,0,0,1.737-1.015v.9Z" transform="translate(-109.792 -685.579)" fill="#3d58a6"/>
</svg>
